{"title":"The Hunt 2006 DVDRip Xvid LKRG","uid":6465416,"size":1105547500,"categoryP":"video","categoryS":"movies","magnet":"?xt=urn:btih:6907dfb293b2eac8aa0040d4d5f988f579d7da1f&amp;dn=The+Hunt+2006+DVDRip+Xvid+LKRG&amp;tr=udp%3A%2F%2Ftracker.openbittorrent.com%3A80&amp;tr=udp%3A%2F%2Fopen.demonii.com%3A1337&amp;tr=udp%3A%2F%2Ftracker.coppersurfer.tk%3A6969&amp;tr=udp%3A%2F%2Fexodus.desync.com%3A6969","seeders":2,"leechers":0,"uploader":".BONE.","files":2,"time":1307949947,"description":"PLOT\n\nThere are over 43 million hunters in the United States today. A great number of\nhunters...a great number of deer. Statistically something was bound to go wrong.\n &lt;a href=&quot;\nhttp://www.imdb.com/title/tt0454843/&quot; rel=&quot;nofollow&quot; target=&quot;_NEW&quot;&gt;\nhttp://www.imdb.com/title/tt0454843/&lt;/a&gt;\n\n\nEncoded By .......: BigPerm1828\nRuntime ..........: 1h 29mn\nFile Size ........: 1.03 GB\nResolution .......: 704x396\nIMDb URL .........: http://www.imdb.com/title/tt0454843/\nLanguage .........: English\nVideo\nID : 0\nFormat : MPEG-4 Visual\nFormat profile : Advanced Simple@L5\nFormat settings, BVOP : Yes\nFormat settings, QPel : No\nFormat settings, GMC : No warppoints\nFormat settings, Matrix : Default (H.263)\nCodec ID : XVID\nCodec ID/Hint : XviD\nDuration : 1h 29mn\nBit rate : 60.9 Kbps\nWidth : 704 pixels\nHeight : 396 pixels\nDisplay aspect ratio : 16:9\nFrame rate : 29.970 fps\nColor space : YUV\nChroma subsampling : 4:2:0\nBit depth : 8 bits\nScan type : Progressive\nCompression mode : Lossy\nBits/(Pixel*Frame) : 0.007\nStream size : 39.1 MiB (4%)\nWriting library : XviD 1.2.1 (UTC 2008-12-04)\n\nAudio\nID : 1\nFormat : AC-3\nFormat/Info : Audio Coding 3\nCodec ID : 2000\nDuration : 1h 29mn\nBit rate mode : Constant\nBit rate : 448 Kbps\nChannel(s) : 6 channels\nSampling rate : 48.0 KHz\nBit depth : 16 bits\nCompression mode : Lossy\nStream size : 288 MiB (27%)\nAlignment : Aligned on interleaves\n &lt;a href=&quot;\nhttp://leetleech.org/images/84968591223619953699.png&quot; rel=&quot;nofollow&quot; target=&quot;_NEW&quot;&gt;\nhttp://leetleech.org/images/84968591223619953699.png&lt;/a&gt;\n &lt;a href=&quot;\nhttp://leetleech.org/images/77064973022944376639.png&quot; rel=&quot;nofollow&quot; target=&quot;_NEW&quot;&gt;\nhttp://leetleech.org/images/77064973022944376639.png&lt;/a&gt;\n &lt;a href=&quot;\nhttp://leetleech.org/images/91230521065506414896.png&quot; rel=&quot;nofollow&quot; target=&quot;_NEW&quot;&gt;\nhttp://leetleech.org/images/91230521065506414896.png&lt;/a&gt;\n &lt;a href=&quot;\nhttp://leetleech.org/images/52165481449099520618.png&quot; rel=&quot;nofollow&quot; target=&quot;_NEW&quot;&gt;\nhttp://leetleech.org/images/52165481449099520618.png&lt;/a&gt;","torrent":{"xt":"urn:btih:6907dfb293b2eac8aa0040d4d5f988f579d7da1f","amp;dn":"The+Hunt+2006+DVDRip+Xvid+LKRG","amp;tr":["udp%3A%2F%2Ftracker.openbittorrent.com%3A80","udp%3A%2F%2Fopen.demonii.com%3A1337","udp%3A%2F%2Ftracker.coppersurfer.tk%3A6969","udp%3A%2F%2Fexodus.desync.com%3A6969"],"infoHash":"6907dfb293b2eac8aa0040d4d5f988f579d7da1f","infoHashBuffer":{"type":"Buffer","data":[105,7,223,178,147,178,234,200,170,0,64,212,213,249,136,245,121,215,218,31]},"announce":[],"urlList":[]}}